<svg width="522" height="500" viewBox="0 0 522 500" fill="none" xmlns="http://www.w3.org/2000/svg">
<circle cx="261" cy="250" r="250" fill="#D9D9D9"/>
<path d="M43.5703 318.031C36.1901 318.031 29.3854 316.135 23.1562 312.344C16.9948 308.552 12.0521 303.508 8.32812 297.211C4.67188 290.846 2.84375 283.872 2.84375 276.289V266.742C2.84375 265.997 3.18229 265.625 3.85938 265.625H27.2188C27.7604 265.625 28.0312 265.997 28.0312 266.742V276.289C28.0312 280.826 29.5547 284.753 32.6016 288.07C35.6484 291.32 39.3047 292.945 43.5703 292.945C47.9036 292.945 51.5938 291.286 54.6406 287.969C57.6875 284.583 59.2109 280.69 59.2109 276.289C59.2109 271.211 55.8932 266.776 49.2578 262.984C48.1745 262.307 46.7526 261.495 44.9922 260.547C43.2995 259.531 41.2682 258.38 38.8984 257.094C36.5286 255.807 34.2266 254.555 31.9922 253.336C29.7578 252.049 27.5911 250.831 25.4922 249.68C17.9089 245.211 12.2552 239.625 8.53125 232.922C4.875 226.151 3.04688 218.568 3.04688 210.172C3.04688 202.453 4.94271 195.479 8.73438 189.25C12.526 183.089 17.4688 178.214 23.5625 174.625C29.724 170.969 36.3932 169.141 43.5703 169.141C50.9505 169.141 57.7214 170.969 63.8828 174.625C70.0443 178.349 74.9531 183.292 78.6094 189.453C82.3333 195.615 84.1953 202.521 84.1953 210.172V227.234C84.1953 227.776 83.9245 228.047 83.3828 228.047H60.0234C59.4818 228.047 59.2109 227.776 59.2109 227.234L59.0078 210.172C59.0078 205.297 57.4844 201.336 54.4375 198.289C51.3906 195.242 47.7682 193.719 43.5703 193.719C39.3047 193.719 35.6484 195.344 32.6016 198.594C29.5547 201.844 28.0312 205.703 28.0312 210.172C28.0312 214.708 28.9792 218.5 30.875 221.547C32.8385 224.594 36.3932 227.505 41.5391 230.281C42.0807 230.552 43.3333 231.229 45.2969 232.312C47.2604 233.396 49.4271 234.615 51.7969 235.969C54.2344 237.255 56.4349 238.44 58.3984 239.523C60.362 240.539 61.5469 241.148 61.9531 241.352C68.8594 245.211 74.3099 249.951 78.3047 255.57C82.3672 261.19 84.3984 268.096 84.3984 276.289C84.3984 284.211 82.5703 291.32 78.9141 297.617C75.1901 303.914 70.2474 308.891 64.0859 312.547C57.9245 316.203 51.0859 318.031 43.5703 318.031ZM149.792 318.031C142.412 318.031 135.608 316.135 129.378 312.344C123.217 308.552 118.24 303.508 114.449 297.211C110.725 290.846 108.863 283.872 108.863 276.289L109.066 210.375C109.066 202.656 110.928 195.716 114.652 189.555C118.308 183.326 123.251 178.349 129.48 174.625C135.709 170.833 142.48 168.938 149.792 168.938C157.376 168.938 164.181 170.799 170.207 174.523C176.3 178.247 181.175 183.258 184.832 189.555C188.556 195.784 190.417 202.724 190.417 210.375L190.621 276.289C190.621 283.872 188.792 290.812 185.136 297.109C181.412 303.474 176.47 308.552 170.308 312.344C164.147 316.135 157.308 318.031 149.792 318.031ZM149.792 292.945C153.99 292.945 157.647 291.253 160.761 287.867C163.876 284.414 165.433 280.555 165.433 276.289L165.23 210.375C165.23 205.771 163.774 201.878 160.863 198.695C157.951 195.513 154.261 193.922 149.792 193.922C145.527 193.922 141.871 195.479 138.824 198.594C135.777 201.708 134.253 205.635 134.253 210.375V276.289C134.253 280.826 135.777 284.753 138.824 288.07C141.871 291.32 145.527 292.945 149.792 292.945ZM241.491 316H220.671C219.588 316 219.046 315.526 219.046 314.578L218.843 172.898C218.843 171.815 219.384 171.273 220.468 171.273H239.257L274.397 253.234L273.382 172.898C273.382 171.815 273.991 171.273 275.21 171.273H295.827C296.64 171.273 297.046 171.815 297.046 172.898L297.249 314.781C297.249 315.594 296.911 316 296.233 316H277.952L241.897 239.422L243.421 314.375C243.421 315.458 242.778 316 241.491 316ZM320.799 314.984L346.596 172.086C346.732 171.544 347.07 171.273 347.612 171.273H377.776C378.318 171.273 378.656 171.544 378.792 172.086L403.573 314.984C403.641 315.661 403.37 316 402.76 316H379.706C379.029 316 378.656 315.661 378.588 314.984L376.354 299.75H348.018L345.784 314.984C345.716 315.661 345.378 316 344.768 316H321.612C321.07 316 320.799 315.661 320.799 314.984ZM361.526 219.109L352.182 277.508H372.19L363.659 219.109L362.44 211.391L361.526 219.109ZM453.428 316H429.865C429.324 316 429.053 315.661 429.053 314.984L429.459 172.086C429.459 171.544 429.73 171.273 430.272 171.273H472.318C479.834 171.273 486.74 173.102 493.037 176.758C499.334 180.414 504.344 185.323 508.068 191.484C511.86 197.646 513.756 204.62 513.756 212.406C513.756 217.484 512.977 222.089 511.42 226.219C509.863 230.349 508.035 233.836 505.936 236.68C503.904 239.523 502.042 241.622 500.35 242.977C507.865 251.305 511.623 261.089 511.623 272.328L511.826 314.984C511.826 315.661 511.488 316 510.811 316H487.248C486.706 316 486.436 315.797 486.436 315.391V272.328C486.436 267.318 484.675 262.984 481.154 259.328C477.634 255.672 473.3 253.844 468.154 253.844H454.443L454.24 314.984C454.24 315.661 453.969 316 453.428 316ZM472.318 196.156H454.443V228.859H472.318C476.584 228.859 480.376 227.268 483.693 224.086C487.079 220.904 488.772 217.01 488.772 212.406C488.772 208.005 487.147 204.214 483.897 201.031C480.647 197.781 476.787 196.156 472.318 196.156Z" fill="#9E7ADA"/>
<path d="M236 101L247.5 97H260H272.5L283.5 101L368 138.5L364.5 142.5L272.5 105H260H247.5L156.5 142.5L154 138.5L236 101Z" fill="white"/>
<path d="M240.439 82.2527L249.897 79H260.178H270.458L279.505 82.2527L349 112.747L346.121 116L270.458 85.5055H260.178H249.897L175.056 116L173 112.747L240.439 82.2527Z" fill="white"/>
<path d="M246.047 64.3736L252.925 62H260.402H267.879L274.458 64.3736L325 86.6264L322.907 89L267.879 66.7473H260.402H252.925L198.495 89L197 86.6264L246.047 64.3736Z" fill="white"/>
<path d="M286 386.5L274.5 390.5H262H249.5L238.5 386.5L154 349L157.5 345L249.5 382.5H262H274.5L365.5 345L368 349L286 386.5Z" fill="white"/>
<path d="M281.561 405.247L272.103 408.5H261.822H251.542L242.495 405.247L173 374.753L175.879 371.5L251.542 401.995H261.822H272.103L346.944 371.5L349 374.753L281.561 405.247Z" fill="white"/>
<path d="M275.953 423.126L269.075 425.5H261.598H254.121L247.542 423.126L197 400.874L199.093 398.5L254.121 420.753H261.598H269.075L323.505 398.5L325 400.874L275.953 423.126Z" fill="white"/>
</svg>
