<svg width="336" height="128" viewBox="0 0 336 128" fill="none" xmlns="http://www.w3.org/2000/svg">
<path d="M9.36585 87.3902V90.5122H6.2439V87.3902H9.36585ZM9.36585 84.2683V87.3902H6.2439V84.2683H9.36585ZM9.36585 81.1463V84.2683H6.2439V81.1463H9.36585ZM9.36585 78.0244V81.1463H6.2439V78.0244H9.36585ZM9.36585 74.9024V78.0244H6.2439V74.9024H9.36585ZM9.36585 71.7805V74.9024H6.2439V71.7805H9.36585ZM9.36585 68.6585V71.7805H6.2439V68.6585H9.36585ZM9.36585 65.5366V68.6585H6.2439V65.5366H9.36585ZM9.36585 62.4146V65.5366H6.2439V62.4146H9.36585ZM9.36585 59.2927V62.4146H6.2439V59.2927H9.36585ZM9.36585 56.1707V59.2927H6.2439V56.1707H9.36585ZM12.4878 56.1707V59.2927H9.36585V56.1707H12.4878ZM12.4878 59.2927V62.4146H9.36585V59.2927H12.4878ZM12.4878 62.4146V65.5366H9.36585V62.4146H12.4878ZM12.4878 65.5366V68.6585H9.36585V65.5366H12.4878ZM12.4878 68.6585V71.7805H9.36585V68.6585H12.4878ZM12.4878 71.7805V74.9024H9.36585V71.7805H12.4878ZM12.4878 74.9024V78.0244H9.36585V74.9024H12.4878ZM15.6098 78.0244V81.1463H12.4878V78.0244H15.6098ZM15.6098 81.1463V84.2683H12.4878V81.1463H15.6098ZM15.6098 84.2683V87.3902H12.4878V84.2683H15.6098ZM15.6098 87.3902V90.5122H12.4878V87.3902H15.6098ZM15.6098 90.5122V93.6341H12.4878V90.5122H15.6098ZM15.6098 93.6341V96.7561H12.4878V93.6341H15.6098ZM15.6098 96.7561V99.878H12.4878V96.7561H15.6098ZM21.8537 99.878V103H18.7317V99.878H21.8537ZM21.8537 96.7561V99.878H18.7317V96.7561H21.8537ZM21.8537 93.6341V96.7561H18.7317V93.6341H21.8537ZM21.8537 90.5122V93.6341H18.7317V90.5122H21.8537ZM21.8537 87.3902V90.5122H18.7317V87.3902H21.8537ZM21.8537 84.2683V87.3902H18.7317V84.2683H21.8537ZM21.8537 81.1463V84.2683H18.7317V81.1463H21.8537ZM21.8537 78.0244V81.1463H18.7317V78.0244H21.8537ZM18.7317 78.0244V81.1463H15.6098V78.0244H18.7317ZM18.7317 74.9024V78.0244H15.6098V74.9024H18.7317ZM18.7317 81.1463V84.2683H15.6098V81.1463H18.7317ZM18.7317 84.2683V87.3902H15.6098V84.2683H18.7317ZM18.7317 87.3902V90.5122H15.6098V87.3902H18.7317ZM18.7317 90.5122V93.6341H15.6098V90.5122H18.7317ZM18.7317 93.6341V96.7561H15.6098V93.6341H18.7317ZM18.7317 96.7561V99.878H15.6098V96.7561H18.7317ZM12.4878 93.6341V96.7561H9.36585V93.6341H12.4878ZM12.4878 90.5122V93.6341H9.36585V90.5122H12.4878ZM12.4878 87.3902V90.5122H9.36585V87.3902H12.4878ZM12.4878 84.2683V87.3902H9.36585V84.2683H12.4878ZM12.4878 81.1463V84.2683H9.36585V81.1463H12.4878ZM12.4878 78.0244V81.1463H9.36585V78.0244H12.4878ZM9.36585 53.0488V56.1707H6.2439V53.0488H9.36585ZM18.7317 53.0488V56.1707H15.6098V53.0488H18.7317ZM18.7317 56.1707V59.2927H15.6098V56.1707H18.7317ZM18.7317 59.2927V62.4146H15.6098V59.2927H18.7317ZM18.7317 62.4146V65.5366H15.6098V62.4146H18.7317ZM18.7317 65.5366V68.6585H15.6098V65.5366H18.7317ZM21.8537 68.6585V71.7805H18.7317V68.6585H21.8537ZM21.8537 71.7805V74.9024H18.7317V71.7805H21.8537ZM21.8537 74.9024V78.0244H18.7317V74.9024H21.8537ZM21.8537 65.5366V68.6585H18.7317V65.5366H21.8537ZM21.8537 62.4146V65.5366H18.7317V62.4146H21.8537ZM21.8537 59.2927V62.4146H18.7317V59.2927H21.8537ZM21.8537 56.1707V59.2927H18.7317V56.1707H21.8537ZM21.8537 53.0488V56.1707H18.7317V53.0488H21.8537ZM12.4878 53.0488V56.1707H9.36585V53.0488H12.4878ZM15.6098 53.0488V56.1707H12.4878V53.0488H15.6098ZM15.6098 56.1707V59.2927H12.4878V56.1707H15.6098ZM15.6098 59.2927V62.4146H12.4878V59.2927H15.6098ZM15.6098 62.4146V65.5366H12.4878V62.4146H15.6098ZM15.6098 65.5366V68.6585H12.4878V65.5366H15.6098ZM15.6098 68.6585V71.7805H12.4878V68.6585H15.6098ZM15.6098 71.7805V74.9024H12.4878V71.7805H15.6098ZM15.6098 74.9024V78.0244H12.4878V74.9024H15.6098ZM18.7317 71.7805V74.9024H15.6098V71.7805H18.7317ZM18.7317 68.6585V71.7805H15.6098V68.6585H18.7317ZM46.8293 99.878V103H43.7073V99.878H46.8293ZM46.8293 96.7561V99.878H43.7073V96.7561H46.8293ZM46.8293 93.6341V96.7561H43.7073V93.6341H46.8293ZM46.8293 90.5122V93.6341H43.7073V90.5122H46.8293ZM46.8293 87.3902V90.5122H43.7073V87.3902H46.8293ZM46.8293 84.2683V87.3902H43.7073V84.2683H46.8293ZM46.8293 81.1463V84.2683H43.7073V81.1463H46.8293ZM53.0732 81.1463V84.2683H49.9512V81.1463H53.0732ZM53.0732 84.2683V87.3902H49.9512V84.2683H53.0732ZM53.0732 87.3902V90.5122H49.9512V87.3902H53.0732ZM53.0732 90.5122V93.6341H49.9512V90.5122H53.0732ZM53.0732 93.6341V96.7561H49.9512V93.6341H53.0732ZM53.0732 96.7561V99.878H49.9512V96.7561H53.0732ZM59.3171 87.3902V90.5122H56.1951V87.3902H59.3171ZM59.3171 84.2683V87.3902H56.1951V84.2683H59.3171ZM59.3171 81.1463V84.2683H56.1951V81.1463H59.3171ZM56.1951 81.1463V84.2683H53.0732V81.1463H56.1951ZM56.1951 84.2683V87.3902H53.0732V84.2683H56.1951ZM56.1951 87.3902V90.5122H53.0732V87.3902H56.1951ZM56.1951 90.5122V93.6341H53.0732V90.5122H56.1951ZM56.1951 93.6341V96.7561H53.0732V93.6341H56.1951ZM49.9512 96.7561V99.878H46.8293V96.7561H49.9512ZM49.9512 93.6341V96.7561H46.8293V93.6341H49.9512ZM49.9512 90.5122V93.6341H46.8293V90.5122H49.9512ZM49.9512 87.3902V90.5122H46.8293V87.3902H49.9512ZM49.9512 84.2683V87.3902H46.8293V84.2683H49.9512ZM49.9512 81.1463V84.2683H46.8293V81.1463H49.9512ZM24.9756 99.878V103H21.8537V99.878H24.9756ZM28.0976 99.878V103H24.9756V99.878H28.0976ZM31.2195 99.878V103H28.0976V99.878H31.2195ZM34.3415 99.878V103H31.2195V99.878H34.3415ZM37.4634 99.878V103H34.3415V99.878H37.4634ZM43.7073 99.878V103H40.5854V99.878H43.7073ZM43.7073 96.7561V99.878H40.5854V96.7561H43.7073ZM37.4634 96.7561V99.878H34.3415V96.7561H37.4634ZM34.3415 96.7561V99.878H31.2195V96.7561H34.3415ZM31.2195 96.7561V99.878H28.0976V96.7561H31.2195ZM28.0976 96.7561V99.878H24.9756V96.7561H28.0976ZM24.9756 96.7561V99.878H21.8537V96.7561H24.9756ZM24.9756 93.6341V96.7561H21.8537V93.6341H24.9756ZM28.0976 93.6341V96.7561H24.9756V93.6341H28.0976ZM31.2195 93.6341V96.7561H28.0976V93.6341H31.2195ZM34.3415 93.6341V96.7561H31.2195V93.6341H34.3415ZM37.4634 93.6341V96.7561H34.3415V93.6341H37.4634ZM43.7073 93.6341V96.7561H40.5854V93.6341H43.7073ZM43.7073 90.5122V93.6341H40.5854V90.5122H43.7073ZM37.4634 90.5122V93.6341H34.3415V90.5122H37.4634ZM34.3415 90.5122V93.6341H31.2195V90.5122H34.3415ZM31.2195 90.5122V93.6341H28.0976V90.5122H31.2195ZM28.0976 90.5122V93.6341H24.9756V90.5122H28.0976ZM24.9756 90.5122V93.6341H21.8537V90.5122H24.9756ZM24.9756 87.3902V90.5122H21.8537V87.3902H24.9756ZM43.7073 87.3902V90.5122H40.5854V87.3902H43.7073ZM56.1951 40.561V37.439H59.3171V40.561H56.1951ZM56.1951 43.6829V40.561H59.3171V43.6829H56.1951ZM56.1951 46.8049V43.6829H59.3171V46.8049H56.1951ZM49.9512 46.8049V43.6829H53.0732V46.8049H49.9512ZM49.9512 43.6829V40.561H53.0732V43.6829H49.9512ZM49.9512 40.561V37.439H53.0732V40.561H49.9512ZM49.9512 37.439V34.3171H53.0732V37.439H49.9512ZM49.9512 34.3171V31.1951H53.0732V34.3171H49.9512ZM49.9512 31.1951V28.0732H53.0732V31.1951H49.9512ZM43.7073 28.0732V24.9512H46.8293V28.0732H43.7073ZM43.7073 31.1951V28.0732H46.8293V31.1951H43.7073ZM43.7073 34.3171V31.1951H46.8293V34.3171H43.7073ZM43.7073 37.439V34.3171H46.8293V37.439H43.7073ZM43.7073 40.561V37.439H46.8293V40.561H43.7073ZM43.7073 43.6829V40.561H46.8293V43.6829H43.7073ZM43.7073 46.8049V43.6829H46.8293V46.8049H43.7073ZM46.8293 46.8049V43.6829H49.9512V46.8049H46.8293ZM46.8293 43.6829V40.561H49.9512V43.6829H46.8293ZM46.8293 40.561V37.439H49.9512V40.561H46.8293ZM46.8293 37.439V34.3171H49.9512V37.439H46.8293ZM46.8293 34.3171V31.1951H49.9512V34.3171H46.8293ZM46.8293 31.1951V28.0732H49.9512V31.1951H46.8293ZM53.0732 34.3171V31.1951H56.1951V34.3171H53.0732ZM53.0732 37.439V34.3171H56.1951V37.439H53.0732ZM53.0732 40.561V37.439H56.1951V40.561H53.0732ZM53.0732 43.6829V40.561H56.1951V43.6829H53.0732ZM53.0732 46.8049V43.6829H56.1951V46.8049H53.0732ZM18.7317 28.0732V24.9512H21.8537V28.0732H18.7317ZM18.7317 31.1951V28.0732H21.8537V31.1951H18.7317ZM18.7317 34.3171V31.1951H21.8537V34.3171H18.7317ZM18.7317 37.439V34.3171H21.8537V37.439H18.7317ZM18.7317 40.561V37.439H21.8537V40.561H18.7317ZM18.7317 43.6829V40.561H21.8537V43.6829H18.7317ZM18.7317 46.8049V43.6829H21.8537V46.8049H18.7317ZM12.4878 46.8049V43.6829H15.6098V46.8049H12.4878ZM12.4878 43.6829V40.561H15.6098V43.6829H12.4878ZM12.4878 40.561V37.439H15.6098V40.561H12.4878ZM12.4878 37.439V34.3171H15.6098V37.439H12.4878ZM12.4878 34.3171V31.1951H15.6098V34.3171H12.4878ZM12.4878 31.1951V28.0732H15.6098V31.1951H12.4878ZM6.2439 40.561V37.439H9.36585V40.561H6.2439ZM6.2439 43.6829V40.561H9.36585V43.6829H6.2439ZM6.2439 46.8049V43.6829H9.36585V46.8049H6.2439ZM9.36585 46.8049V43.6829H12.4878V46.8049H9.36585ZM9.36585 43.6829V40.561H12.4878V43.6829H9.36585ZM9.36585 40.561V37.439H12.4878V40.561H9.36585ZM9.36585 37.439V34.3171H12.4878V37.439H9.36585ZM9.36585 34.3171V31.1951H12.4878V34.3171H9.36585ZM15.6098 31.1951V28.0732H18.7317V31.1951H15.6098ZM15.6098 34.3171V31.1951H18.7317V34.3171H15.6098ZM15.6098 37.439V34.3171H18.7317V37.439H15.6098ZM15.6098 40.561V37.439H18.7317V40.561H15.6098ZM15.6098 43.6829V40.561H18.7317V43.6829H15.6098ZM15.6098 46.8049V43.6829H18.7317V46.8049H15.6098ZM40.5854 28.0732V24.9512H43.7073V28.0732H40.5854ZM34.3415 28.0732V24.9512H37.4634V28.0732H34.3415ZM31.2195 28.0732V24.9512H34.3415V28.0732H31.2195ZM28.0976 28.0732V24.9512H31.2195V28.0732H28.0976ZM24.9756 28.0732V24.9512H28.0976V28.0732H24.9756ZM21.8537 28.0732V24.9512H24.9756V28.0732H21.8537ZM21.8537 31.1951V28.0732H24.9756V31.1951H21.8537ZM24.9756 31.1951V28.0732H28.0976V31.1951H24.9756ZM28.0976 31.1951V28.0732H31.2195V31.1951H28.0976ZM31.2195 31.1951V28.0732H34.3415V31.1951H31.2195ZM34.3415 31.1951V28.0732H37.4634V31.1951H34.3415ZM40.5854 31.1951V28.0732H43.7073V31.1951H40.5854ZM40.5854 34.3171V31.1951H43.7073V34.3171H40.5854ZM34.3415 34.3171V31.1951H37.4634V34.3171H34.3415ZM31.2195 34.3171V31.1951H34.3415V34.3171H31.2195ZM28.0976 34.3171V31.1951H31.2195V34.3171H28.0976ZM24.9756 34.3171V31.1951H28.0976V34.3171H24.9756ZM21.8537 34.3171V31.1951H24.9756V34.3171H21.8537ZM21.8537 37.439V34.3171H24.9756V37.439H21.8537ZM24.9756 37.439V34.3171H28.0976V37.439H24.9756ZM28.0976 37.439V34.3171H31.2195V37.439H28.0976ZM31.2195 37.439V34.3171H34.3415V37.439H31.2195ZM34.3415 37.439V34.3171H37.4634V37.439H34.3415ZM40.5854 37.439V34.3171H43.7073V37.439H40.5854ZM40.5854 40.561V37.439H43.7073V40.561H40.5854ZM21.8537 40.561V37.439H24.9756V40.561H21.8537ZM9.36585 49.9268V53.0488H6.2439V49.9268H9.36585ZM12.4878 49.9268V53.0488H9.36585V49.9268H12.4878ZM9.36585 46.8049V49.9268H6.2439V46.8049H9.36585ZM18.7317 46.8049V49.9268H15.6098V46.8049H18.7317ZM18.7317 49.9268V53.0488H15.6098V49.9268H18.7317ZM21.8537 49.9268V53.0488H18.7317V49.9268H21.8537ZM21.8537 46.8049V49.9268H18.7317V46.8049H21.8537ZM12.4878 46.8049V49.9268H9.36585V46.8049H12.4878ZM15.6098 46.8049V49.9268H12.4878V46.8049H15.6098ZM15.6098 49.9268V53.0488H12.4878V49.9268H15.6098ZM28.0976 87.3902V90.5122H24.9756V87.3902H28.0976ZM31.2195 87.3902V90.5122H28.0976V87.3902H31.2195ZM34.3415 87.3902V90.5122H31.2195V87.3902H34.3415ZM37.4634 87.3902V90.5122H34.3415V87.3902H37.4634ZM43.7073 84.2683V87.3902H40.5854V84.2683H43.7073ZM24.9756 84.2683V87.3902H21.8537V84.2683H24.9756ZM46.8293 78.0244V81.1463H43.7073V78.0244H46.8293ZM49.9512 78.0244V81.1463H46.8293V78.0244H49.9512ZM53.0732 78.0244V81.1463H49.9512V78.0244H53.0732ZM56.1951 78.0244V81.1463H53.0732V78.0244H56.1951ZM59.3171 78.0244V81.1463H56.1951V78.0244H59.3171ZM24.9756 40.561V43.6829H21.8537V40.561H24.9756ZM28.0976 37.439V40.561H24.9756V37.439H28.0976ZM31.2195 37.439V40.561H28.0976V37.439H31.2195ZM34.3415 37.439V40.561H31.2195V37.439H34.3415ZM37.4634 37.439V40.561H34.3415V37.439H37.4634ZM43.7073 40.561V43.6829H40.5854V40.561H43.7073ZM46.8293 46.8049V49.9268H43.7073V46.8049H46.8293ZM49.9512 46.8049V49.9268H46.8293V46.8049H49.9512ZM53.0732 46.8049V49.9268H49.9512V46.8049H53.0732ZM56.1951 46.8049V49.9268H53.0732V46.8049H56.1951ZM59.3171 46.8049V49.9268H56.1951V46.8049H59.3171ZM40.5854 24.9512V28.0732H37.4634V24.9512H40.5854ZM40.5854 28.0732V31.1951H37.4634V28.0732H40.5854ZM40.5854 31.1951V34.3171H37.4634V31.1951H40.5854ZM40.5854 34.3171V37.439H37.4634V34.3171H40.5854ZM40.5854 37.439V40.561H37.4634V37.439H40.5854ZM40.5854 87.3902V90.5122H37.4634V87.3902H40.5854ZM40.5854 90.5122V93.6341H37.4634V90.5122H40.5854ZM40.5854 93.6341V96.7561H37.4634V93.6341H40.5854ZM40.5854 96.7561V99.878H37.4634V96.7561H40.5854ZM40.5854 99.878V103H37.4634V99.878H40.5854ZM74.8659 87.3902V90.5122H71.7439V87.3902H74.8659ZM74.8659 84.2683V87.3902H71.7439V84.2683H74.8659ZM74.8659 81.1463V84.2683H71.7439V81.1463H74.8659ZM74.8659 78.0244V81.1463H71.7439V78.0244H74.8659ZM74.8659 56.1707V59.2927H71.7439V56.1707H74.8659ZM77.9878 56.1707V59.2927H74.8659V56.1707H77.9878ZM77.9878 59.2927V62.4146H74.8659V59.2927H77.9878ZM77.9878 62.4146V65.5366H74.8659V62.4146H77.9878ZM81.1098 78.0244V81.1463H77.9878V78.0244H81.1098ZM81.1098 81.1463V84.2683H77.9878V81.1463H81.1098ZM81.1098 84.2683V87.3902H77.9878V84.2683H81.1098ZM81.1098 87.3902V90.5122H77.9878V87.3902H81.1098ZM81.1098 90.5122V93.6341H77.9878V90.5122H81.1098ZM81.1098 93.6341V96.7561H77.9878V93.6341H81.1098ZM81.1098 96.7561V99.878H77.9878V96.7561H81.1098ZM87.3537 99.878V103H84.2317V99.878H87.3537ZM87.3537 96.7561V99.878H84.2317V96.7561H87.3537ZM87.3537 93.6341V96.7561H84.2317V93.6341H87.3537ZM87.3537 90.5122V93.6341H84.2317V90.5122H87.3537ZM87.3537 87.3902V90.5122H84.2317V87.3902H87.3537ZM87.3537 84.2683V87.3902H84.2317V84.2683H87.3537ZM87.3537 81.1463V84.2683H84.2317V81.1463H87.3537ZM87.3537 78.0244V81.1463H84.2317V78.0244H87.3537ZM84.2317 78.0244V81.1463H81.1098V78.0244H84.2317ZM84.2317 81.1463V84.2683H81.1098V81.1463H84.2317ZM84.2317 84.2683V87.3902H81.1098V84.2683H84.2317ZM84.2317 87.3902V90.5122H81.1098V87.3902H84.2317ZM84.2317 90.5122V93.6341H81.1098V90.5122H84.2317ZM84.2317 93.6341V96.7561H81.1098V93.6341H84.2317ZM84.2317 96.7561V99.878H81.1098V96.7561H84.2317ZM77.9878 93.6341V96.7561H74.8659V93.6341H77.9878ZM77.9878 90.5122V93.6341H74.8659V90.5122H77.9878ZM77.9878 87.3902V90.5122H74.8659V87.3902H77.9878ZM77.9878 84.2683V87.3902H74.8659V84.2683H77.9878ZM77.9878 81.1463V84.2683H74.8659V81.1463H77.9878ZM77.9878 78.0244V81.1463H74.8659V78.0244H77.9878ZM74.8659 53.0488V56.1707H71.7439V53.0488H74.8659ZM84.2317 53.0488V56.1707H81.1098V53.0488H84.2317ZM84.2317 56.1707V59.2927H81.1098V56.1707H84.2317ZM84.2317 59.2927V62.4146H81.1098V59.2927H84.2317ZM84.2317 62.4146V65.5366H81.1098V62.4146H84.2317ZM84.2317 65.5366V68.6585H81.1098V65.5366H84.2317ZM87.3537 68.6585V71.7805H84.2317V68.6585H87.3537ZM87.3537 65.5366V68.6585H84.2317V65.5366H87.3537ZM87.3537 62.4146V65.5366H84.2317V62.4146H87.3537ZM87.3537 59.2927V62.4146H84.2317V59.2927H87.3537ZM87.3537 56.1707V59.2927H84.2317V56.1707H87.3537ZM87.3537 53.0488V56.1707H84.2317V53.0488H87.3537ZM77.9878 53.0488V56.1707H74.8659V53.0488H77.9878ZM81.1098 53.0488V56.1707H77.9878V53.0488H81.1098ZM81.1098 56.1707V59.2927H77.9878V56.1707H81.1098ZM81.1098 59.2927V62.4146H77.9878V59.2927H81.1098ZM81.1098 62.4146V65.5366H77.9878V62.4146H81.1098ZM81.1098 65.5366V68.6585H77.9878V65.5366H81.1098ZM112.329 99.878V103H109.207V99.878H112.329ZM112.329 96.7561V99.878H109.207V96.7561H112.329ZM112.329 93.6341V96.7561H109.207V93.6341H112.329ZM112.329 90.5122V93.6341H109.207V90.5122H112.329ZM112.329 87.3902V90.5122H109.207V87.3902H112.329ZM112.329 84.2683V87.3902H109.207V84.2683H112.329ZM112.329 81.1463V84.2683H109.207V81.1463H112.329ZM112.329 78.0244V81.1463H109.207V78.0244H112.329ZM112.329 74.9024V78.0244H109.207V74.9024H112.329ZM112.329 71.7805V74.9024H109.207V71.7805H112.329ZM112.329 68.6585V71.7805H109.207V68.6585H112.329ZM112.329 65.5366V68.6585H109.207V65.5366H112.329ZM112.329 62.4146V65.5366H109.207V62.4146H112.329ZM112.329 59.2927V62.4146H109.207V59.2927H112.329ZM112.329 56.1707V59.2927H109.207V56.1707H112.329ZM115.451 59.2927V62.4146H112.329V59.2927H115.451ZM115.451 62.4146V65.5366H112.329V62.4146H115.451ZM115.451 65.5366V68.6585H112.329V65.5366H115.451ZM115.451 68.6585V71.7805H112.329V68.6585H115.451ZM115.451 71.7805V74.9024H112.329V71.7805H115.451ZM115.451 74.9024V78.0244H112.329V74.9024H115.451ZM118.573 78.0244V81.1463H115.451V78.0244H118.573ZM118.573 81.1463V84.2683H115.451V81.1463H118.573ZM118.573 84.2683V87.3902H115.451V84.2683H118.573ZM118.573 87.3902V90.5122H115.451V87.3902H118.573ZM118.573 90.5122V93.6341H115.451V90.5122H118.573ZM118.573 93.6341V96.7561H115.451V93.6341H118.573ZM118.573 96.7561V99.878H115.451V96.7561H118.573ZM124.817 87.3902V90.5122H121.695V87.3902H124.817ZM124.817 84.2683V87.3902H121.695V84.2683H124.817ZM124.817 81.1463V84.2683H121.695V81.1463H124.817ZM124.817 78.0244V81.1463H121.695V78.0244H124.817ZM121.695 78.0244V81.1463H118.573V78.0244H121.695ZM121.695 74.9024V78.0244H118.573V74.9024H121.695ZM121.695 81.1463V84.2683H118.573V81.1463H121.695ZM121.695 84.2683V87.3902H118.573V84.2683H121.695ZM121.695 87.3902V90.5122H118.573V87.3902H121.695ZM121.695 90.5122V93.6341H118.573V90.5122H121.695ZM121.695 93.6341V96.7561H118.573V93.6341H121.695ZM115.451 96.7561V99.878H112.329V96.7561H115.451ZM115.451 93.6341V96.7561H112.329V93.6341H115.451ZM115.451 90.5122V93.6341H112.329V90.5122H115.451ZM115.451 87.3902V90.5122H112.329V87.3902H115.451ZM115.451 84.2683V87.3902H112.329V84.2683H115.451ZM115.451 81.1463V84.2683H112.329V81.1463H115.451ZM115.451 78.0244V81.1463H112.329V78.0244H115.451ZM121.695 65.5366V68.6585H118.573V65.5366H121.695ZM124.817 68.6585V71.7805H121.695V68.6585H124.817ZM124.817 71.7805V74.9024H121.695V71.7805H124.817ZM124.817 74.9024V78.0244H121.695V74.9024H124.817ZM118.573 59.2927V62.4146H115.451V59.2927H118.573ZM118.573 62.4146V65.5366H115.451V62.4146H118.573ZM118.573 65.5366V68.6585H115.451V65.5366H118.573ZM118.573 68.6585V71.7805H115.451V68.6585H118.573ZM118.573 71.7805V74.9024H115.451V71.7805H118.573ZM118.573 74.9024V78.0244H115.451V74.9024H118.573ZM121.695 71.7805V74.9024H118.573V71.7805H121.695ZM121.695 68.6585V71.7805H118.573V68.6585H121.695ZM90.4756 99.878V103H87.3537V99.878H90.4756ZM93.5976 99.878V103H90.4756V99.878H93.5976ZM96.7195 99.878V103H93.5976V99.878H96.7195ZM102.963 99.878V103H99.8415V99.878H102.963ZM106.085 99.878V103H102.963V99.878H106.085ZM109.207 99.878V103H106.085V99.878H109.207ZM109.207 96.7561V99.878H106.085V96.7561H109.207ZM106.085 96.7561V99.878H102.963V96.7561H106.085ZM102.963 96.7561V99.878H99.8415V96.7561H102.963ZM96.7195 96.7561V99.878H93.5976V96.7561H96.7195ZM93.5976 96.7561V99.878H90.4756V96.7561H93.5976ZM90.4756 96.7561V99.878H87.3537V96.7561H90.4756ZM90.4756 93.6341V96.7561H87.3537V93.6341H90.4756ZM93.5976 93.6341V96.7561H90.4756V93.6341H93.5976ZM96.7195 93.6341V96.7561H93.5976V93.6341H96.7195ZM102.963 93.6341V96.7561H99.8415V93.6341H102.963ZM106.085 93.6341V96.7561H102.963V93.6341H106.085ZM109.207 93.6341V96.7561H106.085V93.6341H109.207ZM109.207 90.5122V93.6341H106.085V90.5122H109.207ZM106.085 90.5122V93.6341H102.963V90.5122H106.085ZM102.963 90.5122V93.6341H99.8415V90.5122H102.963ZM96.7195 90.5122V93.6341H93.5976V90.5122H96.7195ZM93.5976 90.5122V93.6341H90.4756V90.5122H93.5976ZM90.4756 90.5122V93.6341H87.3537V90.5122H90.4756ZM90.4756 87.3902V90.5122H87.3537V87.3902H90.4756ZM109.207 87.3902V90.5122H106.085V87.3902H109.207ZM121.695 40.561V37.439H124.817V40.561H121.695ZM121.695 43.6829V40.561H124.817V43.6829H121.695ZM121.695 46.8049V43.6829H124.817V46.8049H121.695ZM115.451 46.8049V43.6829H118.573V46.8049H115.451ZM115.451 43.6829V40.561H118.573V43.6829H115.451ZM115.451 40.561V37.439H118.573V40.561H115.451ZM115.451 37.439V34.3171H118.573V37.439H115.451ZM115.451 34.3171V31.1951H118.573V34.3171H115.451ZM115.451 31.1951V28.0732H118.573V31.1951H115.451ZM109.207 28.0732V24.9512H112.329V28.0732H109.207ZM109.207 31.1951V28.0732H112.329V31.1951H109.207ZM109.207 34.3171V31.1951H112.329V34.3171H109.207ZM109.207 37.439V34.3171H112.329V37.439H109.207ZM109.207 40.561V37.439H112.329V40.561H109.207ZM109.207 43.6829V40.561H112.329V43.6829H109.207ZM109.207 46.8049V43.6829H112.329V46.8049H109.207ZM112.329 46.8049V43.6829H115.451V46.8049H112.329ZM112.329 43.6829V40.561H115.451V43.6829H112.329ZM112.329 40.561V37.439H115.451V40.561H112.329ZM112.329 37.439V34.3171H115.451V37.439H112.329ZM112.329 34.3171V31.1951H115.451V34.3171H112.329ZM112.329 31.1951V28.0732H115.451V31.1951H112.329ZM118.573 34.3171V31.1951H121.695V34.3171H118.573ZM118.573 37.439V34.3171H121.695V37.439H118.573ZM118.573 40.561V37.439H121.695V40.561H118.573ZM118.573 43.6829V40.561H121.695V43.6829H118.573ZM118.573 46.8049V43.6829H121.695V46.8049H118.573ZM84.2317 28.0732V24.9512H87.3537V28.0732H84.2317ZM84.2317 31.1951V28.0732H87.3537V31.1951H84.2317ZM84.2317 34.3171V31.1951H87.3537V34.3171H84.2317ZM84.2317 37.439V34.3171H87.3537V37.439H84.2317ZM84.2317 40.561V37.439H87.3537V40.561H84.2317ZM84.2317 43.6829V40.561H87.3537V43.6829H84.2317ZM84.2317 46.8049V43.6829H87.3537V46.8049H84.2317ZM77.9878 46.8049V43.6829H81.1098V46.8049H77.9878ZM77.9878 43.6829V40.561H81.1098V43.6829H77.9878ZM77.9878 40.561V37.439H81.1098V40.561H77.9878ZM77.9878 37.439V34.3171H81.1098V37.439H77.9878ZM77.9878 34.3171V31.1951H81.1098V34.3171H77.9878ZM77.9878 31.1951V28.0732H81.1098V31.1951H77.9878ZM71.7439 40.561V37.439H74.8659V40.561H71.7439ZM71.7439 43.6829V40.561H74.8659V43.6829H71.7439ZM71.7439 46.8049V43.6829H74.8659V46.8049H71.7439ZM74.8659 46.8049V43.6829H77.9878V46.8049H74.8659ZM74.8659 43.6829V40.561H77.9878V43.6829H74.8659ZM74.8659 40.561V37.439H77.9878V40.561H74.8659ZM74.8659 37.439V34.3171H77.9878V37.439H74.8659ZM74.8659 34.3171V31.1951H77.9878V34.3171H74.8659ZM81.1098 31.1951V28.0732H84.2317V31.1951H81.1098ZM81.1098 34.3171V31.1951H84.2317V34.3171H81.1098ZM81.1098 37.439V34.3171H84.2317V37.439H81.1098ZM81.1098 40.561V37.439H84.2317V40.561H81.1098ZM81.1098 43.6829V40.561H84.2317V43.6829H81.1098ZM81.1098 46.8049V43.6829H84.2317V46.8049H81.1098ZM106.085 28.0732V24.9512H109.207V28.0732H106.085ZM102.963 28.0732V24.9512H106.085V28.0732H102.963ZM99.8415 28.0732V24.9512H102.963V28.0732H99.8415ZM93.5976 28.0732V24.9512H96.7195V28.0732H93.5976ZM90.4756 28.0732V24.9512H93.5976V28.0732H90.4756ZM87.3537 28.0732V24.9512H90.4756V28.0732H87.3537ZM87.3537 31.1951V28.0732H90.4756V31.1951H87.3537ZM90.4756 31.1951V28.0732H93.5976V31.1951H90.4756ZM93.5976 31.1951V28.0732H96.7195V31.1951H93.5976ZM99.8415 31.1951V28.0732H102.963V31.1951H99.8415ZM102.963 31.1951V28.0732H106.085V31.1951H102.963ZM106.085 31.1951V28.0732H109.207V31.1951H106.085ZM106.085 34.3171V31.1951H109.207V34.3171H106.085ZM102.963 34.3171V31.1951H106.085V34.3171H102.963ZM99.8415 34.3171V31.1951H102.963V34.3171H99.8415ZM93.5976 34.3171V31.1951H96.7195V34.3171H93.5976ZM90.4756 34.3171V31.1951H93.5976V34.3171H90.4756ZM87.3537 34.3171V31.1951H90.4756V34.3171H87.3537ZM87.3537 37.439V34.3171H90.4756V37.439H87.3537ZM90.4756 37.439V34.3171H93.5976V37.439H90.4756ZM93.5976 37.439V34.3171H96.7195V37.439H93.5976ZM99.8415 37.439V34.3171H102.963V37.439H99.8415ZM102.963 37.439V34.3171H106.085V37.439H102.963ZM106.085 37.439V34.3171H109.207V37.439H106.085ZM106.085 40.561V37.439H109.207V40.561H106.085ZM87.3537 40.561V37.439H90.4756V40.561H87.3537ZM74.8659 49.9268V53.0488H71.7439V49.9268H74.8659ZM77.9878 49.9268V53.0488H74.8659V49.9268H77.9878ZM74.8659 46.8049V49.9268H71.7439V46.8049H74.8659ZM84.2317 46.8049V49.9268H81.1098V46.8049H84.2317ZM84.2317 49.9268V53.0488H81.1098V49.9268H84.2317ZM87.3537 49.9268V53.0488H84.2317V49.9268H87.3537ZM87.3537 46.8049V49.9268H84.2317V46.8049H87.3537ZM77.9878 46.8049V49.9268H74.8659V46.8049H77.9878ZM81.1098 46.8049V49.9268H77.9878V46.8049H81.1098ZM81.1098 49.9268V53.0488H77.9878V49.9268H81.1098ZM93.5976 87.3902V90.5122H90.4756V87.3902H93.5976ZM96.7195 87.3902V90.5122H93.5976V87.3902H96.7195ZM102.963 87.3902V90.5122H99.8415V87.3902H102.963ZM106.085 87.3902V90.5122H102.963V87.3902H106.085ZM109.207 84.2683V87.3902H106.085V84.2683H109.207ZM90.4756 84.2683V87.3902H87.3537V84.2683H90.4756ZM93.5976 37.439V40.561H90.4756V37.439H93.5976ZM96.7195 37.439V40.561H93.5976V37.439H96.7195ZM102.963 37.439V40.561H99.8415V37.439H102.963ZM106.085 37.439V40.561H102.963V37.439H106.085ZM109.207 40.561V43.6829H106.085V40.561H109.207ZM90.4756 40.561V43.6829H87.3537V40.561H90.4756ZM96.7195 62.4146V65.5366H93.5976V62.4146H96.7195ZM102.963 62.4146V65.5366H99.8415V62.4146H102.963ZM106.085 62.4146V65.5366H102.963V62.4146H106.085ZM109.207 62.4146V65.5366H106.085V62.4146H109.207ZM109.207 65.5366V68.6585H106.085V65.5366H109.207ZM106.085 65.5366V68.6585H102.963V65.5366H106.085ZM102.963 65.5366V68.6585H99.8415V65.5366H102.963ZM96.7195 65.5366V68.6585H93.5976V65.5366H96.7195ZM96.7195 56.1707V59.2927H93.5976V56.1707H96.7195ZM102.963 56.1707V59.2927H99.8415V56.1707H102.963ZM106.085 56.1707V59.2927H102.963V56.1707H106.085ZM109.207 56.1707V59.2927H106.085V56.1707H109.207ZM109.207 59.2927V62.4146H106.085V59.2927H109.207ZM106.085 59.2927V62.4146H102.963V59.2927H106.085ZM102.963 59.2927V62.4146H99.8415V59.2927H102.963ZM96.7195 59.2927V62.4146H93.5976V59.2927H96.7195ZM96.7195 68.6585V71.7805H93.5976V68.6585H96.7195ZM102.963 68.6585V71.7805H99.8415V68.6585H102.963ZM106.085 68.6585V71.7805H102.963V68.6585H106.085ZM109.207 68.6585V71.7805H106.085V68.6585H109.207ZM121.695 62.4146V65.5366H118.573V62.4146H121.695ZM109.207 71.7805V74.9024H106.085V71.7805H109.207ZM90.4756 56.1707V59.2927H87.3537V56.1707H90.4756ZM93.5976 56.1707V59.2927H90.4756V56.1707H93.5976ZM90.4756 53.0488V56.1707H87.3537V53.0488H90.4756ZM93.5976 59.2927V62.4146H90.4756V59.2927H93.5976ZM93.5976 62.4146V65.5366H90.4756V62.4146H93.5976ZM93.5976 65.5366V68.6585H90.4756V65.5366H93.5976ZM93.5976 68.6585V71.7805H90.4756V68.6585H93.5976ZM90.4756 68.6585V71.7805H87.3537V68.6585H90.4756ZM90.4756 65.5366V68.6585H87.3537V65.5366H90.4756ZM90.4756 62.4146V65.5366H87.3537V62.4146H90.4756ZM90.4756 59.2927V62.4146H87.3537V59.2927H90.4756ZM99.8415 24.9512V28.0732H96.7195V24.9512H99.8415ZM99.8415 28.0732V31.1951H96.7195V28.0732H99.8415ZM99.8415 31.1951V34.3171H96.7195V31.1951H99.8415ZM99.8415 34.3171V37.439H96.7195V34.3171H99.8415ZM99.8415 37.439V40.561H96.7195V37.439H99.8415ZM99.8415 56.1707V59.2927H96.7195V56.1707H99.8415ZM99.8415 59.2927V62.4146H96.7195V59.2927H99.8415ZM99.8415 62.4146V65.5366H96.7195V62.4146H99.8415ZM99.8415 65.5366V68.6585H96.7195V65.5366H99.8415ZM99.8415 68.6585V71.7805H96.7195V68.6585H99.8415ZM99.8415 87.3902V90.5122H96.7195V87.3902H99.8415ZM99.8415 90.5122V93.6341H96.7195V90.5122H99.8415ZM99.8415 93.6341V96.7561H96.7195V93.6341H99.8415ZM99.8415 96.7561V99.878H96.7195V96.7561H99.8415ZM99.8415 99.878V103H96.7195V99.878H99.8415ZM140.366 99.878V103H137.244V99.878H140.366ZM140.366 96.7561V99.878H137.244V96.7561H140.366ZM140.366 93.6341V96.7561H137.244V93.6341H140.366ZM140.366 90.5122V93.6341H137.244V90.5122H140.366ZM140.366 87.3902V90.5122H137.244V87.3902H140.366ZM140.366 84.2683V87.3902H137.244V84.2683H140.366ZM140.366 81.1463V84.2683H137.244V81.1463H140.366ZM140.366 78.0244V81.1463H137.244V78.0244H140.366ZM140.366 74.9024V78.0244H137.244V74.9024H140.366ZM140.366 71.7805V74.9024H137.244V71.7805H140.366ZM140.366 68.6585V71.7805H137.244V68.6585H140.366ZM140.366 65.5366V68.6585H137.244V65.5366H140.366ZM140.366 62.4146V65.5366H137.244V62.4146H140.366ZM140.366 59.2927V62.4146H137.244V59.2927H140.366ZM140.366 56.1707V59.2927H137.244V56.1707H140.366ZM143.488 56.1707V59.2927H140.366V56.1707H143.488ZM143.488 59.2927V62.4146H140.366V59.2927H143.488ZM143.488 62.4146V65.5366H140.366V62.4146H143.488ZM143.488 65.5366V68.6585H140.366V65.5366H143.488ZM143.488 68.6585V71.7805H140.366V68.6585H143.488ZM143.488 71.7805V74.9024H140.366V71.7805H143.488ZM143.488 74.9024V78.0244H140.366V74.9024H143.488ZM146.61 78.0244V81.1463H143.488V78.0244H146.61ZM146.61 81.1463V84.2683H143.488V81.1463H146.61ZM146.61 84.2683V87.3902H143.488V84.2683H146.61ZM146.61 87.3902V90.5122H143.488V87.3902H146.61ZM146.61 90.5122V93.6341H143.488V90.5122H146.61ZM146.61 93.6341V96.7561H143.488V93.6341H146.61ZM146.61 96.7561V99.878H143.488V96.7561H146.61ZM146.61 99.878V103H143.488V99.878H146.61ZM149.732 99.878V103H146.61V99.878H149.732ZM152.854 99.878V103H149.732V99.878H152.854ZM152.854 96.7561V99.878H149.732V96.7561H152.854ZM152.854 93.6341V96.7561H149.732V93.6341H152.854ZM152.854 90.5122V93.6341H149.732V90.5122H152.854ZM152.854 87.3902V90.5122H149.732V87.3902H152.854ZM152.854 84.2683V87.3902H149.732V84.2683H152.854ZM152.854 81.1463V84.2683H149.732V81.1463H152.854ZM152.854 78.0244V81.1463H149.732V78.0244H152.854ZM149.732 78.0244V81.1463H146.61V78.0244H149.732ZM149.732 74.9024V78.0244H146.61V74.9024H149.732ZM149.732 81.1463V84.2683H146.61V81.1463H149.732ZM149.732 84.2683V87.3902H146.61V84.2683H149.732ZM149.732 87.3902V90.5122H146.61V87.3902H149.732ZM149.732 90.5122V93.6341H146.61V90.5122H149.732ZM149.732 93.6341V96.7561H146.61V93.6341H149.732ZM149.732 96.7561V99.878H146.61V96.7561H149.732ZM143.488 99.878V103H140.366V99.878H143.488ZM143.488 96.7561V99.878H140.366V96.7561H143.488ZM143.488 93.6341V96.7561H140.366V93.6341H143.488ZM143.488 90.5122V93.6341H140.366V90.5122H143.488ZM143.488 87.3902V90.5122H140.366V87.3902H143.488ZM143.488 84.2683V87.3902H140.366V84.2683H143.488ZM143.488 81.1463V84.2683H140.366V81.1463H143.488ZM143.488 78.0244V81.1463H140.366V78.0244H143.488ZM140.366 46.8049V49.9268H137.244V46.8049H140.366ZM140.366 49.9268V53.0488H137.244V49.9268H140.366ZM140.366 53.0488V56.1707H137.244V53.0488H140.366ZM149.732 40.561V43.6829H146.61V40.561H149.732ZM149.732 46.8049V49.9268H146.61V46.8049H149.732ZM149.732 49.9268V53.0488H146.61V49.9268H149.732ZM149.732 53.0488V56.1707H146.61V53.0488H149.732ZM149.732 56.1707V59.2927H146.61V56.1707H149.732ZM149.732 59.2927V62.4146H146.61V59.2927H149.732ZM149.732 62.4146V65.5366H146.61V62.4146H149.732ZM149.732 65.5366V68.6585H146.61V65.5366H149.732ZM152.854 68.6585V71.7805H149.732V68.6585H152.854ZM152.854 71.7805V74.9024H149.732V71.7805H152.854ZM152.854 74.9024V78.0244H149.732V74.9024H152.854ZM152.854 65.5366V68.6585H149.732V65.5366H152.854ZM152.854 62.4146V65.5366H149.732V62.4146H152.854ZM152.854 59.2927V62.4146H149.732V59.2927H152.854ZM152.854 56.1707V59.2927H149.732V56.1707H152.854ZM152.854 53.0488V56.1707H149.732V53.0488H152.854ZM152.854 49.9268V53.0488H149.732V49.9268H152.854ZM152.854 46.8049V49.9268H149.732V46.8049H152.854ZM152.854 43.6829V46.8049H149.732V43.6829H152.854ZM152.854 40.561V43.6829H149.732V40.561H152.854ZM152.854 37.439V40.561H149.732V37.439H152.854ZM149.732 43.6829V46.8049H146.61V43.6829H149.732ZM152.854 34.3171V37.439H149.732V34.3171H152.854ZM152.854 31.1951V34.3171H149.732V31.1951H152.854ZM146.61 40.561V43.6829H143.488V40.561H146.61ZM146.61 43.6829V46.8049H143.488V43.6829H146.61ZM146.61 46.8049V49.9268H143.488V46.8049H146.61ZM143.488 49.9268V53.0488H140.366V49.9268H143.488ZM143.488 53.0488V56.1707H140.366V53.0488H143.488ZM143.488 46.8049V49.9268H140.366V46.8049H143.488ZM143.488 43.6829V46.8049H140.366V43.6829H143.488ZM146.61 49.9268V53.0488H143.488V49.9268H146.61ZM146.61 53.0488V56.1707H143.488V53.0488H146.61ZM146.61 56.1707V59.2927H143.488V56.1707H146.61ZM146.61 59.2927V62.4146H143.488V59.2927H146.61ZM146.61 62.4146V65.5366H143.488V62.4146H146.61ZM146.61 65.5366V68.6585H143.488V65.5366H146.61ZM146.61 68.6585V71.7805H143.488V68.6585H146.61ZM146.61 71.7805V74.9024H143.488V71.7805H146.61ZM146.61 74.9024V78.0244H143.488V74.9024H146.61ZM149.732 71.7805V74.9024H146.61V71.7805H149.732ZM149.732 68.6585V71.7805H146.61V68.6585H149.732ZM174.707 99.878V103H171.585V99.878H174.707ZM174.707 96.7561V99.878H171.585V96.7561H174.707ZM174.707 93.6341V96.7561H171.585V93.6341H174.707ZM174.707 90.5122V93.6341H171.585V90.5122H174.707ZM174.707 87.3902V90.5122H171.585V87.3902H174.707ZM174.707 84.2683V87.3902H171.585V84.2683H174.707ZM174.707 81.1463V84.2683H171.585V81.1463H174.707ZM174.707 78.0244V81.1463H171.585V78.0244H174.707ZM174.707 74.9024V78.0244H171.585V74.9024H174.707ZM174.707 71.7805V74.9024H171.585V71.7805H174.707ZM174.707 68.6585V71.7805H171.585V68.6585H174.707ZM174.707 65.5366V68.6585H171.585V65.5366H174.707ZM174.707 62.4146V65.5366H171.585V62.4146H174.707ZM174.707 59.2927V62.4146H171.585V59.2927H174.707ZM174.707 56.1707V59.2927H171.585V56.1707H174.707ZM177.829 56.1707V59.2927H174.707V56.1707H177.829ZM177.829 59.2927V62.4146H174.707V59.2927H177.829ZM177.829 62.4146V65.5366H174.707V62.4146H177.829ZM177.829 65.5366V68.6585H174.707V65.5366H177.829ZM177.829 68.6585V71.7805H174.707V68.6585H177.829ZM177.829 71.7805V74.9024H174.707V71.7805H177.829ZM177.829 74.9024V78.0244H174.707V74.9024H177.829ZM180.951 78.0244V81.1463H177.829V78.0244H180.951ZM180.951 81.1463V84.2683H177.829V81.1463H180.951ZM180.951 84.2683V87.3902H177.829V84.2683H180.951ZM180.951 87.3902V90.5122H177.829V87.3902H180.951ZM180.951 90.5122V93.6341H177.829V90.5122H180.951ZM180.951 93.6341V96.7561H177.829V93.6341H180.951ZM180.951 96.7561V99.878H177.829V96.7561H180.951ZM180.951 99.878V103H177.829V99.878H180.951ZM184.073 99.878V103H180.951V99.878H184.073ZM187.195 99.878V103H184.073V99.878H187.195ZM187.195 96.7561V99.878H184.073V96.7561H187.195ZM187.195 93.6341V96.7561H184.073V93.6341H187.195ZM187.195 90.5122V93.6341H184.073V90.5122H187.195ZM187.195 87.3902V90.5122H184.073V87.3902H187.195ZM187.195 84.2683V87.3902H184.073V84.2683H187.195ZM187.195 81.1463V84.2683H184.073V81.1463H187.195ZM187.195 78.0244V81.1463H184.073V78.0244H187.195ZM184.073 78.0244V81.1463H180.951V78.0244H184.073ZM184.073 74.9024V78.0244H180.951V74.9024H184.073ZM184.073 81.1463V84.2683H180.951V81.1463H184.073ZM184.073 84.2683V87.3902H180.951V84.2683H184.073ZM184.073 87.3902V90.5122H180.951V87.3902H184.073ZM184.073 90.5122V93.6341H180.951V90.5122H184.073ZM184.073 93.6341V96.7561H180.951V93.6341H184.073ZM184.073 96.7561V99.878H180.951V96.7561H184.073ZM177.829 99.878V103H174.707V99.878H177.829ZM177.829 96.7561V99.878H174.707V96.7561H177.829ZM177.829 93.6341V96.7561H174.707V93.6341H177.829ZM177.829 90.5122V93.6341H174.707V90.5122H177.829ZM177.829 87.3902V90.5122H174.707V87.3902H177.829ZM177.829 84.2683V87.3902H174.707V84.2683H177.829ZM177.829 81.1463V84.2683H174.707V81.1463H177.829ZM177.829 78.0244V81.1463H174.707V78.0244H177.829ZM174.707 31.1951V34.3171H171.585V31.1951H174.707ZM174.707 34.3171V37.439H171.585V34.3171H174.707ZM174.707 37.439V40.561H171.585V37.439H174.707ZM174.707 40.561V43.6829H171.585V40.561H174.707ZM174.707 43.6829V46.8049H171.585V43.6829H174.707ZM174.707 46.8049V49.9268H171.585V46.8049H174.707ZM174.707 49.9268V53.0488H171.585V49.9268H174.707ZM174.707 53.0488V56.1707H171.585V53.0488H174.707ZM184.073 40.561V43.6829H180.951V40.561H184.073ZM184.073 46.8049V49.9268H180.951V46.8049H184.073ZM184.073 49.9268V53.0488H180.951V49.9268H184.073ZM184.073 53.0488V56.1707H180.951V53.0488H184.073ZM184.073 56.1707V59.2927H180.951V56.1707H184.073ZM184.073 59.2927V62.4146H180.951V59.2927H184.073ZM184.073 62.4146V65.5366H180.951V62.4146H184.073ZM184.073 65.5366V68.6585H180.951V65.5366H184.073ZM187.195 68.6585V71.7805H184.073V68.6585H187.195ZM187.195 71.7805V74.9024H184.073V71.7805H187.195ZM187.195 74.9024V78.0244H184.073V74.9024H187.195ZM187.195 65.5366V68.6585H184.073V65.5366H187.195ZM187.195 62.4146V65.5366H184.073V62.4146H187.195ZM187.195 59.2927V62.4146H184.073V59.2927H187.195ZM187.195 56.1707V59.2927H184.073V56.1707H187.195ZM187.195 53.0488V56.1707H184.073V53.0488H187.195ZM187.195 49.9268V53.0488H184.073V49.9268H187.195ZM187.195 46.8049V49.9268H184.073V46.8049H187.195ZM187.195 43.6829V46.8049H184.073V43.6829H187.195ZM184.073 43.6829V46.8049H180.951V43.6829H184.073ZM180.951 37.439V40.561H177.829V37.439H180.951ZM180.951 40.561V43.6829H177.829V40.561H180.951ZM180.951 43.6829V46.8049H177.829V43.6829H180.951ZM180.951 46.8049V49.9268H177.829V46.8049H180.951ZM177.829 49.9268V53.0488H174.707V49.9268H177.829ZM177.829 53.0488V56.1707H174.707V53.0488H177.829ZM177.829 46.8049V49.9268H174.707V46.8049H177.829ZM177.829 43.6829V46.8049H174.707V43.6829H177.829ZM177.829 40.561V43.6829H174.707V40.561H177.829ZM177.829 37.439V40.561H174.707V37.439H177.829ZM177.829 34.3171V37.439H174.707V34.3171H177.829ZM180.951 49.9268V53.0488H177.829V49.9268H180.951ZM180.951 53.0488V56.1707H177.829V53.0488H180.951ZM180.951 56.1707V59.2927H177.829V56.1707H180.951ZM180.951 59.2927V62.4146H177.829V59.2927H180.951ZM180.951 62.4146V65.5366H177.829V62.4146H180.951ZM180.951 65.5366V68.6585H177.829V65.5366H180.951ZM180.951 68.6585V71.7805H177.829V68.6585H180.951ZM180.951 71.7805V74.9024H177.829V71.7805H180.951ZM180.951 74.9024V78.0244H177.829V74.9024H180.951ZM184.073 71.7805V74.9024H180.951V71.7805H184.073ZM184.073 68.6585V71.7805H180.951V68.6585H184.073ZM159.098 24.9512V28.0732H155.976V24.9512H159.098ZM162.22 24.9512V28.0732H159.098V24.9512H162.22ZM165.341 24.9512V28.0732H162.22V24.9512H165.341ZM168.463 24.9512V28.0732H165.341V24.9512H168.463ZM171.585 28.0732V31.1951H168.463V28.0732H171.585ZM168.463 28.0732V31.1951H165.341V28.0732H168.463ZM165.341 28.0732V31.1951H162.22V28.0732H165.341ZM162.22 28.0732V31.1951H159.098V28.0732H162.22ZM159.098 28.0732V31.1951H155.976V28.0732H159.098ZM155.976 28.0732V31.1951H152.854V28.0732H155.976ZM155.976 31.1951V34.3171H152.854V31.1951H155.976ZM155.976 34.3171V37.439H152.854V34.3171H155.976ZM159.098 31.1951V34.3171H155.976V31.1951H159.098ZM162.22 31.1951V34.3171H159.098V31.1951H162.22ZM165.341 31.1951V34.3171H162.22V31.1951H165.341ZM168.463 31.1951V34.3171H165.341V31.1951H168.463ZM171.585 31.1951V34.3171H168.463V31.1951H171.585ZM171.585 34.3171V37.439H168.463V34.3171H171.585ZM168.463 34.3171V37.439H165.341V34.3171H168.463ZM165.341 34.3171V37.439H162.22V34.3171H165.341ZM162.22 34.3171V37.439H159.098V34.3171H162.22ZM159.098 34.3171V37.439H155.976V34.3171H159.098ZM155.976 37.439V40.561H152.854V37.439H155.976ZM159.098 37.439V40.561H155.976V37.439H159.098ZM171.585 37.439V40.561H168.463V37.439H171.585ZM168.463 37.439V40.561H165.341V37.439H168.463ZM171.585 40.561V43.6829H168.463V40.561H171.585ZM155.976 40.561V43.6829H152.854V40.561H155.976ZM149.732 34.3171V37.439H146.61V34.3171H149.732ZM149.732 37.439V40.561H146.61V37.439H149.732ZM146.61 37.439V40.561H143.488V37.439H146.61ZM143.488 40.561V43.6829H140.366V40.561H143.488ZM140.366 43.6829V46.8049H137.244V43.6829H140.366ZM155.976 43.6829V46.8049H152.854V43.6829H155.976ZM159.098 40.561V43.6829H155.976V40.561H159.098ZM162.22 37.439V40.561H159.098V37.439H162.22ZM165.341 37.439V40.561H162.22V37.439H165.341ZM168.463 40.561V43.6829H165.341V40.561H168.463ZM171.585 43.6829V46.8049H168.463V43.6829H171.585ZM155.976 81.1463V84.2683H152.854V81.1463H155.976ZM159.098 81.1463V84.2683H155.976V81.1463H159.098ZM162.22 81.1463V84.2683H159.098V81.1463H162.22ZM165.341 81.1463V84.2683H162.22V81.1463H165.341ZM168.463 81.1463V84.2683H165.341V81.1463H168.463ZM171.585 81.1463V84.2683H168.463V81.1463H171.585ZM171.585 78.0244V81.1463H168.463V78.0244H171.585ZM168.463 78.0244V81.1463H165.341V78.0244H168.463ZM165.341 78.0244V81.1463H162.22V78.0244H165.341ZM162.22 78.0244V81.1463H159.098V78.0244H162.22ZM159.098 78.0244V81.1463H155.976V78.0244H159.098ZM155.976 78.0244V81.1463H152.854V78.0244H155.976ZM155.976 74.9024V78.0244H152.854V74.9024H155.976ZM159.098 74.9024V78.0244H155.976V74.9024H159.098ZM162.22 74.9024V78.0244H159.098V74.9024H162.22ZM165.341 74.9024V78.0244H162.22V74.9024H165.341ZM168.463 74.9024V78.0244H165.341V74.9024H168.463ZM171.585 74.9024V78.0244H168.463V74.9024H171.585ZM171.585 71.7805V74.9024H168.463V71.7805H171.585ZM168.463 71.7805V74.9024H165.341V71.7805H168.463ZM165.341 71.7805V74.9024H162.22V71.7805H165.341ZM162.22 71.7805V74.9024H159.098V71.7805H162.22ZM159.098 71.7805V74.9024H155.976V71.7805H159.098ZM155.976 71.7805V74.9024H152.854V71.7805H155.976ZM155.976 68.6585V71.7805H152.854V68.6585H155.976ZM159.098 68.6585V71.7805H155.976V68.6585H159.098ZM162.22 68.6585V71.7805H159.098V68.6585H162.22ZM165.341 68.6585V71.7805H162.22V68.6585H165.341ZM168.463 68.6585V71.7805H165.341V68.6585H168.463ZM171.585 68.6585V71.7805H168.463V68.6585H171.585ZM162.22 40.561V43.6829H159.098V40.561H162.22ZM165.341 40.561V43.6829H162.22V40.561H165.341ZM159.098 43.6829V46.8049H155.976V43.6829H159.098ZM155.976 46.8049V49.9268H152.854V46.8049H155.976ZM168.463 43.6829V46.8049H165.341V43.6829H168.463ZM171.585 46.8049V49.9268H168.463V46.8049H171.585ZM202.866 99.878V103H199.744V99.878H202.866ZM202.866 96.7561V99.878H199.744V96.7561H202.866ZM202.866 93.6341V96.7561H199.744V93.6341H202.866ZM202.866 90.5122V93.6341H199.744V90.5122H202.866ZM202.866 87.3902V90.5122H199.744V87.3902H202.866ZM202.866 84.2683V87.3902H199.744V84.2683H202.866ZM202.866 81.1463V84.2683H199.744V81.1463H202.866ZM202.866 78.0244V81.1463H199.744V78.0244H202.866ZM202.866 74.9024V78.0244H199.744V74.9024H202.866ZM202.866 71.7805V74.9024H199.744V71.7805H202.866ZM202.866 68.6585V71.7805H199.744V68.6585H202.866ZM202.866 65.5366V68.6585H199.744V65.5366H202.866ZM202.866 62.4146V65.5366H199.744V62.4146H202.866ZM202.866 59.2927V62.4146H199.744V59.2927H202.866ZM202.866 56.1707V59.2927H199.744V56.1707H202.866ZM205.988 56.1707V59.2927H202.866V56.1707H205.988ZM205.988 59.2927V62.4146H202.866V59.2927H205.988ZM205.988 62.4146V65.5366H202.866V62.4146H205.988ZM205.988 65.5366V68.6585H202.866V65.5366H205.988ZM205.988 68.6585V71.7805H202.866V68.6585H205.988ZM205.988 71.7805V74.9024H202.866V71.7805H205.988ZM205.988 74.9024V78.0244H202.866V74.9024H205.988ZM209.11 78.0244V81.1463H205.988V78.0244H209.11ZM209.11 81.1463V84.2683H205.988V81.1463H209.11ZM209.11 84.2683V87.3902H205.988V84.2683H209.11ZM209.11 87.3902V90.5122H205.988V87.3902H209.11ZM209.11 90.5122V93.6341H205.988V90.5122H209.11ZM209.11 93.6341V96.7561H205.988V93.6341H209.11ZM209.11 96.7561V99.878H205.988V96.7561H209.11ZM209.11 99.878V103H205.988V99.878H209.11ZM212.232 99.878V103H209.11V99.878H212.232ZM215.354 99.878V103H212.232V99.878H215.354ZM215.354 87.3902V90.5122H212.232V87.3902H215.354ZM215.354 84.2683V87.3902H212.232V84.2683H215.354ZM215.354 81.1463V84.2683H212.232V81.1463H215.354ZM215.354 78.0244V81.1463H212.232V78.0244H215.354ZM212.232 78.0244V81.1463H209.11V78.0244H212.232ZM212.232 74.9024V78.0244H209.11V74.9024H212.232ZM212.232 81.1463V84.2683H209.11V81.1463H212.232ZM212.232 84.2683V87.3902H209.11V84.2683H212.232ZM212.232 87.3902V90.5122H209.11V87.3902H212.232ZM212.232 90.5122V93.6341H209.11V90.5122H212.232ZM212.232 93.6341V96.7561H209.11V93.6341H212.232ZM212.232 96.7561V99.878H209.11V96.7561H212.232ZM205.988 99.878V103H202.866V99.878H205.988ZM205.988 96.7561V99.878H202.866V96.7561H205.988ZM205.988 93.6341V96.7561H202.866V93.6341H205.988ZM205.988 90.5122V93.6341H202.866V90.5122H205.988ZM205.988 87.3902V90.5122H202.866V87.3902H205.988ZM205.988 84.2683V87.3902H202.866V84.2683H205.988ZM205.988 81.1463V84.2683H202.866V81.1463H205.988ZM205.988 78.0244V81.1463H202.866V78.0244H205.988ZM202.866 24.9512V28.0732H199.744V24.9512H202.866ZM202.866 28.0732V31.1951H199.744V28.0732H202.866ZM202.866 31.1951V34.3171H199.744V31.1951H202.866ZM202.866 34.3171V37.439H199.744V34.3171H202.866ZM202.866 37.439V40.561H199.744V37.439H202.866ZM202.866 40.561V43.6829H199.744V40.561H202.866ZM202.866 43.6829V46.8049H199.744V43.6829H202.866ZM202.866 46.8049V49.9268H199.744V46.8049H202.866ZM202.866 49.9268V53.0488H199.744V49.9268H202.866ZM202.866 53.0488V56.1707H199.744V53.0488H202.866ZM212.232 24.9512V28.0732H209.11V24.9512H212.232ZM212.232 28.0732V31.1951H209.11V28.0732H212.232ZM212.232 31.1951V34.3171H209.11V31.1951H212.232ZM212.232 34.3171V37.439H209.11V34.3171H212.232ZM212.232 37.439V40.561H209.11V37.439H212.232ZM212.232 40.561V43.6829H209.11V40.561H212.232ZM212.232 46.8049V49.9268H209.11V46.8049H212.232ZM212.232 49.9268V53.0488H209.11V49.9268H212.232ZM212.232 53.0488V56.1707H209.11V53.0488H212.232ZM212.232 56.1707V59.2927H209.11V56.1707H212.232ZM212.232 59.2927V62.4146H209.11V59.2927H212.232ZM212.232 62.4146V65.5366H209.11V62.4146H212.232ZM212.232 65.5366V68.6585H209.11V65.5366H212.232ZM215.354 68.6585V71.7805H212.232V68.6585H215.354ZM215.354 71.7805V74.9024H212.232V71.7805H215.354ZM215.354 74.9024V78.0244H212.232V74.9024H215.354ZM215.354 65.5366V68.6585H212.232V65.5366H215.354ZM215.354 62.4146V65.5366H212.232V62.4146H215.354ZM215.354 59.2927V62.4146H212.232V59.2927H215.354ZM215.354 56.1707V59.2927H212.232V56.1707H215.354ZM215.354 53.0488V56.1707H212.232V53.0488H215.354ZM215.354 49.9268V53.0488H212.232V49.9268H215.354ZM215.354 46.8049V49.9268H212.232V46.8049H215.354ZM215.354 43.6829V46.8049H212.232V43.6829H215.354ZM215.354 40.561V43.6829H212.232V40.561H215.354ZM215.354 37.439V40.561H212.232V37.439H215.354ZM212.232 43.6829V46.8049H209.11V43.6829H212.232ZM215.354 34.3171V37.439H212.232V34.3171H215.354ZM215.354 31.1951V34.3171H212.232V31.1951H215.354ZM215.354 28.0732V31.1951H212.232V28.0732H215.354ZM215.354 24.9512V28.0732H212.232V24.9512H215.354ZM209.11 24.9512V28.0732H205.988V24.9512H209.11ZM205.988 24.9512V28.0732H202.866V24.9512H205.988ZM205.988 28.0732V31.1951H202.866V28.0732H205.988ZM209.11 28.0732V31.1951H205.988V28.0732H209.11ZM209.11 31.1951V34.3171H205.988V31.1951H209.11ZM209.11 34.3171V37.439H205.988V34.3171H209.11ZM209.11 37.439V40.561H205.988V37.439H209.11ZM209.11 40.561V43.6829H205.988V40.561H209.11ZM209.11 43.6829V46.8049H205.988V43.6829H209.11ZM209.11 46.8049V49.9268H205.988V46.8049H209.11ZM205.988 49.9268V53.0488H202.866V49.9268H205.988ZM205.988 53.0488V56.1707H202.866V53.0488H205.988ZM205.988 46.8049V49.9268H202.866V46.8049H205.988ZM205.988 43.6829V46.8049H202.866V43.6829H205.988ZM205.988 40.561V43.6829H202.866V40.561H205.988ZM205.988 37.439V40.561H202.866V37.439H205.988ZM205.988 34.3171V37.439H202.866V34.3171H205.988ZM205.988 31.1951V34.3171H202.866V31.1951H205.988ZM209.11 49.9268V53.0488H205.988V49.9268H209.11ZM209.11 53.0488V56.1707H205.988V53.0488H209.11ZM209.11 56.1707V59.2927H205.988V56.1707H209.11ZM209.11 59.2927V62.4146H205.988V59.2927H209.11ZM209.11 62.4146V65.5366H205.988V62.4146H209.11ZM209.11 65.5366V68.6585H205.988V65.5366H209.11ZM209.11 68.6585V71.7805H205.988V68.6585H209.11ZM209.11 71.7805V74.9024H205.988V71.7805H209.11ZM209.11 74.9024V78.0244H205.988V74.9024H209.11ZM212.232 71.7805V74.9024H209.11V71.7805H212.232ZM212.232 68.6585V71.7805H209.11V68.6585H212.232ZM218.476 68.6585V71.7805H215.354V68.6585H218.476ZM221.598 68.6585V71.7805H218.476V68.6585H221.598ZM221.598 71.7805V74.9024H218.476V71.7805H221.598ZM218.476 71.7805V74.9024H215.354V71.7805H218.476ZM218.476 62.4146V65.5366H215.354V62.4146H218.476ZM221.598 62.4146V65.5366H218.476V62.4146H221.598ZM218.476 74.9024V78.0244H215.354V74.9024H218.476ZM221.598 74.9024V78.0244H218.476V74.9024H221.598ZM221.598 65.5366V68.6585H218.476V65.5366H221.598ZM218.476 65.5366V68.6585H215.354V65.5366H218.476ZM218.476 24.9512V28.0732H215.354V24.9512H218.476ZM221.598 24.9512V28.0732H218.476V24.9512H221.598ZM221.598 28.0732V31.1951H218.476V28.0732H221.598ZM218.476 28.0732V31.1951H215.354V28.0732H218.476ZM218.476 31.1951V34.3171H215.354V31.1951H218.476ZM221.598 31.1951V34.3171H218.476V31.1951H221.598ZM221.598 34.3171V37.439H218.476V34.3171H221.598ZM218.476 34.3171V37.439H215.354V34.3171H218.476ZM218.476 37.439V40.561H215.354V37.439H218.476ZM221.598 37.439V40.561H218.476V37.439H221.598ZM224.72 62.4146V65.5366H221.598V62.4146H224.72ZM227.841 62.4146V65.5366H224.72V62.4146H227.841ZM230.963 62.4146V65.5366H227.841V62.4146H230.963ZM234.085 59.2927V62.4146H230.963V59.2927H234.085ZM237.207 56.1707V59.2927H234.085V56.1707H237.207ZM237.207 53.0488V56.1707H234.085V53.0488H237.207ZM237.207 43.6829V46.8049H234.085V43.6829H237.207ZM234.085 40.561V43.6829H230.963V40.561H234.085ZM230.963 37.439V40.561H227.841V37.439H230.963ZM227.841 37.439V40.561H224.72V37.439H227.841ZM224.72 37.439V40.561H221.598V37.439H224.72ZM224.72 24.9512V28.0732H221.598V24.9512H224.72ZM227.841 24.9512V28.0732H224.72V24.9512H227.841ZM230.963 24.9512V28.0732H227.841V24.9512H230.963ZM234.085 24.9512V28.0732H230.963V24.9512H234.085ZM234.085 28.0732V31.1951H230.963V28.0732H234.085ZM234.085 31.1951V34.3171H230.963V31.1951H234.085ZM234.085 34.3171V37.439H230.963V34.3171H234.085ZM230.963 34.3171V37.439H227.841V34.3171H230.963ZM230.963 31.1951V34.3171H227.841V31.1951H230.963ZM227.841 31.1951V34.3171H224.72V31.1951H227.841ZM224.72 31.1951V34.3171H221.598V31.1951H224.72ZM224.72 28.0732V31.1951H221.598V28.0732H224.72ZM227.841 28.0732V31.1951H224.72V28.0732H227.841ZM230.963 28.0732V31.1951H227.841V28.0732H230.963ZM224.72 34.3171V37.439H221.598V34.3171H224.72ZM227.841 34.3171V37.439H224.72V34.3171H227.841ZM234.085 37.439V40.561H230.963V37.439H234.085ZM237.207 40.561V43.6829H234.085V40.561H237.207ZM237.207 37.439V40.561H234.085V37.439H237.207ZM237.207 34.3171V37.439H234.085V34.3171H237.207ZM237.207 31.1951V34.3171H234.085V31.1951H237.207ZM237.207 28.0732V31.1951H234.085V28.0732H237.207ZM237.207 24.9512V28.0732H234.085V24.9512H237.207ZM237.207 59.2927V62.4146H234.085V59.2927H237.207ZM237.207 62.4146V65.5366H234.085V62.4146H237.207ZM237.207 65.5366V68.6585H234.085V65.5366H237.207ZM237.207 68.6585V71.7805H234.085V68.6585H237.207ZM234.085 68.6585V71.7805H230.963V68.6585H234.085ZM230.963 68.6585V71.7805H227.841V68.6585H230.963ZM227.841 68.6585V71.7805H224.72V68.6585H227.841ZM224.72 68.6585V71.7805H221.598V68.6585H224.72ZM224.72 65.5366V68.6585H221.598V65.5366H224.72ZM227.841 65.5366V68.6585H224.72V65.5366H227.841ZM230.963 65.5366V68.6585H227.841V65.5366H230.963ZM234.085 65.5366V68.6585H230.963V65.5366H234.085ZM234.085 62.4146V65.5366H230.963V62.4146H234.085ZM224.72 71.7805V74.9024H221.598V71.7805H224.72ZM227.841 71.7805V74.9024H224.72V71.7805H227.841ZM230.963 71.7805V74.9024H227.841V71.7805H230.963ZM234.085 71.7805V74.9024H230.963V71.7805H234.085ZM237.207 71.7805V74.9024H234.085V71.7805H237.207ZM237.207 74.9024V78.0244H234.085V74.9024H237.207ZM234.085 74.9024V78.0244H230.963V74.9024H234.085ZM230.963 74.9024V78.0244H227.841V74.9024H230.963ZM227.841 74.9024V78.0244H224.72V74.9024H227.841ZM224.72 74.9024V78.0244H221.598V74.9024H224.72ZM240.329 28.0732V31.1951H237.207V28.0732H240.329ZM243.451 28.0732V31.1951H240.329V28.0732H243.451ZM243.451 31.1951V34.3171H240.329V31.1951H243.451ZM246.573 31.1951V34.3171H243.451V31.1951H246.573ZM246.573 34.3171V37.439H243.451V34.3171H246.573ZM246.573 37.439V40.561H243.451V37.439H246.573ZM249.695 37.439V40.561H246.573V37.439H249.695ZM249.695 40.561V43.6829H246.573V40.561H249.695ZM249.695 43.6829V46.8049H246.573V43.6829H249.695ZM249.695 53.0488V56.1707H246.573V53.0488H249.695ZM249.695 56.1707V59.2927H246.573V56.1707H249.695ZM249.695 59.2927V62.4146H246.573V59.2927H249.695ZM249.695 62.4146V65.5366H246.573V62.4146H249.695ZM246.573 65.5366V68.6585H243.451V65.5366H246.573ZM243.451 68.6585V71.7805H240.329V68.6585H243.451ZM240.329 71.7805V74.9024H237.207V71.7805H240.329ZM243.451 71.7805V74.9024H240.329V71.7805H243.451ZM240.329 74.9024V78.0244H237.207V74.9024H240.329ZM240.329 31.1951V34.3171H237.207V31.1951H240.329ZM240.329 34.3171V37.439H237.207V34.3171H240.329ZM240.329 37.439V40.561H237.207V37.439H240.329ZM240.329 40.561V43.6829H237.207V40.561H240.329ZM240.329 43.6829V46.8049H237.207V43.6829H240.329ZM240.329 53.0488V56.1707H237.207V53.0488H240.329ZM240.329 56.1707V59.2927H237.207V56.1707H240.329ZM240.329 59.2927V62.4146H237.207V59.2927H240.329ZM240.329 62.4146V65.5366H237.207V62.4146H240.329ZM240.329 65.5366V68.6585H237.207V65.5366H240.329ZM240.329 68.6585V71.7805H237.207V68.6585H240.329ZM243.451 65.5366V68.6585H240.329V65.5366H243.451ZM243.451 62.4146V65.5366H240.329V62.4146H243.451ZM243.451 59.2927V62.4146H240.329V59.2927H243.451ZM243.451 56.1707V59.2927H240.329V56.1707H243.451ZM243.451 53.0488V56.1707H240.329V53.0488H243.451ZM243.451 43.6829V46.8049H240.329V43.6829H243.451ZM243.451 40.561V43.6829H240.329V40.561H243.451ZM243.451 37.439V40.561H240.329V37.439H243.451ZM243.451 34.3171V37.439H240.329V34.3171H243.451ZM246.573 40.561V43.6829H243.451V40.561H246.573ZM246.573 43.6829V46.8049H243.451V43.6829H246.573ZM246.573 53.0488V56.1707H243.451V53.0488H246.573ZM246.573 56.1707V59.2927H243.451V56.1707H246.573ZM246.573 59.2927V62.4146H243.451V59.2927H246.573ZM246.573 62.4146V65.5366H243.451V62.4146H246.573ZM215.354 93.6341V96.7561H212.232V93.6341H215.354ZM215.354 96.7561V99.878H212.232V96.7561H215.354ZM215.354 90.5122V93.6341H212.232V90.5122H215.354ZM237.207 46.8049V49.9268H234.085V46.8049H237.207ZM240.329 46.8049V49.9268H237.207V46.8049H240.329ZM243.451 46.8049V49.9268H240.329V46.8049H243.451ZM246.573 46.8049V49.9268H243.451V46.8049H246.573ZM249.695 46.8049V49.9268H246.573V46.8049H249.695ZM249.695 49.9268V53.0488H246.573V49.9268H249.695ZM246.573 49.9268V53.0488H243.451V49.9268H246.573ZM243.451 49.9268V53.0488H240.329V49.9268H243.451ZM240.329 49.9268V53.0488H237.207V49.9268H240.329ZM237.207 49.9268V53.0488H234.085V49.9268H237.207Z" fill="white"/>
<rect x="6" y="113" width="329" height="12" fill="white"/>
<g clip-path="url(#clip0_265_2)">
<path d="M265.75 25H324.25V68.875H334V103H256V68.875H265.75V25Z" fill="white"/>
<path d="M270.625 29.875H319.375V68.875H270.625V29.875Z" fill="#1E1E1E"/>
<path d="M275.5 34.75H314.5V64H275.5V34.75Z" fill="white"/>
<path d="M280.375 39.625H285.25V49.375H280.375V39.625Z" fill="#1E1E1E"/>
<path d="M280.375 54.25H285.25V59.125H280.375V54.25Z" fill="#1E1E1E"/>
<path d="M260.875 73.75H329.125V93.25H324.25V88.375H319.375V93.25H314.5V88.375H309.625V93.25H304.75V88.375H299.875V93.25H295V88.375H290.125V93.25H285.25V88.375H280.375V93.25H275.5V88.375H270.625V93.25H265.75V88.375H260.875V73.75Z" fill="#1E1E1E"/>
<path d="M304.75 78.625H324.25V83.5H304.75V78.625Z" fill="white"/>
<rect x="332" y="68" width="3" height="3" fill="#1E1E1E"/>
<rect x="275" y="34" width="2" height="2" fill="#1E1E1E"/>
<rect x="313" y="34" width="2" height="2" fill="#1E1E1E"/>
<rect x="313" y="62" width="2" height="3" fill="#1E1E1E"/>
<rect x="275" y="62" width="2" height="3" fill="#1E1E1E"/>
<rect x="280" y="53" width="2" height="2" fill="white"/>
<rect x="284" y="53" width="2" height="2" fill="white"/>
<rect x="280" y="58" width="2" height="2" fill="white"/>
<rect x="284" y="58" width="2" height="2" fill="white"/>
</g>
<rect x="263" y="23" width="5" height="4" fill="#1E1E1E"/>
<rect x="322" y="23" width="5" height="4" fill="#1E1E1E"/>
<rect x="332" y="101" width="3" height="5" fill="#1E1E1E"/>
<rect x="255" y="101" width="3" height="2" fill="#1E1E1E"/>
<rect x="254" y="68" width="4" height="3" fill="#1E1E1E"/>
<rect x="333" y="112" width="3" height="3" fill="#1E1E1E"/>
<rect x="333" y="123" width="3" height="3" fill="#1E1E1E"/>
<rect x="5" y="112" width="3" height="3" fill="#1E1E1E"/>
<rect x="5" y="123" width="3" height="3" fill="#1E1E1E"/>
<defs>
<clipPath id="clip0_265_2">
<rect width="78" height="78" fill="white" transform="translate(256 25)"/>
</clipPath>
</defs>
</svg>
